<svg width="184" height="43" viewBox="0 0 184 43" fill="none" xmlns="http://www.w3.org/2000/svg">
<path d="M0.886 42V0.529998H30.176V5.112H6.106V18.22H27.972V22.628H6.106V37.186H30.872V42H0.886ZM47.9553 42.812C39.0233 42.812 33.4553 35.736 33.4553 27.036C33.4553 18.336 39.0233 11.26 47.9553 11.26C56.9453 11.26 62.3973 18.336 62.3973 27.036C62.3973 35.736 56.9453 42.812 47.9553 42.812ZM47.9553 38.868C54.3353 38.868 57.5833 33.648 57.5833 27.036C57.5833 20.424 54.3353 15.146 47.9553 15.146C41.5753 15.146 38.2693 20.424 38.2693 27.036C38.2693 33.648 41.5753 38.868 47.9553 38.868ZM71.7806 12.014V17.002H71.8966C73.6946 14.102 76.8266 11.666 80.8286 11.666C81.6986 11.666 82.1626 11.782 82.7426 12.014V16.538H82.5686C81.8726 16.306 81.4086 16.248 80.4806 16.248C75.8406 16.248 71.7806 19.728 71.7806 25.354V42H67.0826V12.014H71.7806ZM109.379 42.29C106.305 42.29 104.681 40.898 104.217 37.824H104.159C102.361 40.144 99.2866 42.58 94.1826 42.58C88.4986 42.58 84.0326 39.912 84.0326 34.228C84.0326 27.152 89.6006 25.702 97.0826 24.542C101.317 23.904 104.275 23.498 104.275 20.25C104.275 16.886 101.839 14.972 97.5466 14.972C92.6746 14.972 90.2386 17.06 90.0646 21.584H85.5406C85.7146 15.784 89.5426 11.434 97.4886 11.434C103.869 11.434 108.567 13.812 108.567 20.946V35.214C108.567 37.65 109.147 38.984 111.757 38.404H111.931V41.826C111.351 42.058 110.597 42.29 109.379 42.29ZM95.2266 38.984C101.491 38.984 104.333 34.402 104.333 30.922V25.818C102.767 26.804 100.041 27.558 97.4886 28.022C92.7906 28.892 89.0206 29.704 89.0206 34.112C89.0206 38.114 92.1526 38.984 95.2266 38.984ZM128.215 42.812C119.283 42.812 113.715 35.736 113.715 27.036C113.715 18.336 119.283 11.26 128.215 11.26C135.291 11.26 139.989 15.32 141.033 21.7H136.277C135.581 17.64 132.739 15.146 128.215 15.146C121.835 15.146 118.529 20.424 118.529 27.036C118.529 33.648 121.835 38.868 128.215 38.868C133.087 38.868 135.987 36.084 136.393 31.444H141.033C140.395 38.636 135.697 42.812 128.215 42.812ZM145.647 42V0.529998H150.345V42H145.647ZM169.733 42.812C160.569 42.812 155.233 35.736 155.233 27.036C155.233 18.336 160.917 11.26 169.443 11.26C178.433 11.26 183.247 18.22 183.247 28.138H160.047C160.395 34.228 163.701 38.868 169.733 38.868C174.083 38.868 176.983 36.78 178.027 32.72H182.609C181.217 39.158 176.519 42.812 169.733 42.812ZM169.443 14.972C163.875 14.972 160.859 19.148 160.163 24.6H178.201C177.911 18.626 174.837 14.972 169.443 14.972Z" fill="#DEDEDE"/>
</svg>
