<?xml version="1.0" standalone="no"?>
<!DOCTYPE svg PUBLIC "-//W3C//DTD SVG 20010904//EN"
 "http://www.w3.org/TR/2001/REC-SVG-20010904/DTD/svg10.dtd">
<svg version="1.0" xmlns="http://www.w3.org/2000/svg"
 width="832.000000pt" height="832.000000pt" viewBox="0 0 832.000000 832.000000"
 preserveAspectRatio="xMidYMid meet">
<metadata>
Created by potrace 1.14, written by Peter Selinger 2001-2017
</metadata>
<g transform="translate(0.000000,832.000000) scale(0.100000,-0.100000)"
fill="#000000" stroke="none">
<path d="M3707 8154 c-1 -1 -40 -5 -87 -8 -98 -7 -145 -12 -215 -22 -27 -4
-58 -9 -67 -10 -10 -1 -19 -3 -20 -4 -2 -1 -14 -3 -28 -4 -31 -3 -96 -16 -240
-48 -30 -7 -59 -13 -65 -13 -61 -8 -554 -174 -575 -195 -3 -3 -12 -6 -20 -8
-47 -10 -308 -143 -457 -232 -32 -19 -62 -37 -67 -39 -31 -13 -337 -230 -386
-274 -8 -7 -40 -33 -70 -57 -116 -95 -329 -303 -425 -415 -27 -32 -55 -63 -60
-69 -6 -6 -28 -33 -50 -61 -22 -27 -43 -51 -47 -53 -5 -2 -8 -10 -8 -18 0 -8
-4 -14 -8 -14 -4 0 -15 -12 -24 -27 -10 -16 -31 -44 -47 -63 -17 -19 -31 -39
-31 -43 0 -5 -6 -15 -14 -22 -7 -8 -39 -56 -71 -107 -32 -51 -66 -105 -76
-120 -11 -15 -19 -29 -19 -32 0 -3 -14 -29 -31 -58 -65 -110 -149 -285 -217
-453 -36 -89 -118 -322 -127 -364 -3 -9 -12 -43 -21 -76 -22 -81 -20 -72 -54
-235 -16 -80 -32 -161 -34 -180 -11 -94 -18 -147 -22 -170 -26 -157 -25 -743
1 -880 2 -8 6 -42 9 -75 7 -58 12 -95 16 -105 1 -3 2 -9 1 -13 -2 -10 57 -292
69 -332 5 -16 16 -57 25 -90 28 -102 86 -278 106 -322 10 -24 19 -47 19 -53 0
-6 4 -18 9 -28 5 -9 32 -69 60 -133 60 -138 153 -319 201 -394 11 -16 23 -37
27 -45 8 -18 158 -244 185 -280 10 -14 33 -43 49 -65 145 -191 400 -463 558
-595 29 -25 59 -49 65 -55 112 -101 412 -308 576 -400 174 -96 426 -213 575
-265 33 -12 69 -25 80 -30 35 -15 130 -44 137 -42 4 1 22 -5 40 -12 18 -8 83
-26 143 -40 61 -15 128 -31 150 -37 22 -5 54 -12 70 -14 17 -2 39 -5 50 -8 18
-4 69 -13 135 -22 14 -2 52 -7 85 -10 33 -4 74 -9 90 -11 66 -9 292 -18 361
-15 21 1 21 5 21 162 0 107 -4 162 -11 164 -6 2 -74 7 -151 10 -77 3 -162 8
-190 11 -27 4 -67 7 -87 8 -21 0 -38 4 -38 7 0 3 -10 5 -22 4 -13 -1 -36 2
-53 6 -16 4 -46 10 -65 13 -61 8 -144 24 -160 30 -14 5 -39 11 -95 21 -24 5
-88 23 -205 60 -47 14 -89 27 -95 29 -5 2 -19 7 -30 11 -11 4 -60 24 -110 43
-141 54 -400 177 -464 220 -14 10 -39 24 -56 32 -16 8 -34 19 -40 23 -5 4 -59
40 -120 79 -60 40 -116 78 -123 85 -8 7 -35 27 -60 45 -26 17 -49 35 -52 38
-3 4 -32 29 -65 55 -146 118 -381 354 -498 500 -27 33 -54 67 -60 75 -7 8 -23
31 -37 50 -13 19 -27 37 -30 40 -13 10 -128 187 -190 290 -60 101 -181 339
-208 411 -8 19 -18 43 -23 54 -23 52 -82 216 -105 293 -44 148 -40 310 10 449
51 142 165 278 299 356 46 27 170 78 185 76 4 -1 9 0 12 1 3 1 14 4 25 7 11 3
567 6 1235 7 l1214 2 6 24 c4 14 3 37 -1 53 -4 15 -4 40 1 56 4 16 6 32 3 35
-10 10 -11 66 -1 66 5 0 7 4 4 8 -3 5 -6 27 -7 50 l-3 42 -1205 1 c-664 0
-1213 2 -1221 4 -175 35 -302 104 -412 225 -79 86 -146 220 -165 330 -18 99 0
322 28 356 5 6 11 21 13 35 3 13 5 24 6 24 1 0 3 7 5 15 18 84 159 404 248
565 83 149 89 160 103 176 8 8 14 18 14 21 0 6 123 189 147 218 6 8 34 44 62
80 228 291 513 558 816 764 106 72 95 65 226 141 199 115 535 267 642 291 4 1
8 2 10 4 1 1 11 3 22 5 10 2 28 8 40 14 17 8 106 35 155 47 8 1 51 12 95 23
44 11 107 24 140 30 33 6 71 13 85 16 14 3 43 8 65 10 22 3 51 7 65 9 72 14
223 26 362 29 60 1 109 4 110 7 0 3 2 78 3 168 l2 163 -114 -3 c-63 -1 -115
-3 -116 -4z"/>
<path d="M4359 8145 c-15 -8 -29 -21 -32 -29 -3 -8 -6 -1770 -6 -3916 l0
-3901 21 -8 c11 -4 53 -6 92 -5 137 5 301 14 322 18 11 2 45 7 75 10 97 11
133 16 189 27 30 5 66 12 80 14 34 6 68 13 88 19 9 3 33 8 52 11 186 32 616
187 862 312 158 80 409 228 416 245 2 4 8 8 13 8 8 0 236 164 249 179 3 3 28
24 55 46 52 41 75 61 184 161 186 171 372 385 530 610 50 71 95 134 101 141 5
7 10 15 10 17 0 3 16 31 36 62 46 71 102 171 117 206 6 16 15 28 19 28 4 0 8
4 8 9 0 5 24 60 53 122 54 114 79 172 78 176 0 2 11 29 25 60 31 69 125 343
118 343 -2 0 2 16 11 36 13 31 75 295 89 379 7 42 16 94 21 130 2 17 6 48 10
70 25 176 35 544 22 775 -3 52 -6 95 -7 95 0 0 -3 25 -6 55 -5 64 -11 112 -19
160 -3 19 -10 67 -16 105 -6 39 -13 79 -16 90 -2 11 -6 33 -9 48 -2 16 -18 84
-35 150 -16 67 -32 129 -34 137 -24 99 -125 381 -191 530 -133 301 -350 649
-550 885 -14 17 -45 52 -67 79 -54 62 -247 257 -317 319 -30 27 -66 58 -80 71
-14 12 -47 40 -75 61 -27 22 -52 42 -55 45 -10 11 -216 156 -270 190 -30 19
-56 38 -58 42 -2 5 -8 8 -13 8 -5 0 -28 12 -52 27 -251 160 -740 363 -1057
438 -8 2 -15 4 -15 5 0 1 -9 3 -20 4 -11 2 -38 8 -60 14 -22 6 -57 13 -77 16
-21 3 -59 11 -85 17 -27 5 -68 12 -93 15 -25 2 -54 7 -65 11 -11 3 -40 7 -65
9 -25 2 -45 4 -45 4 0 5 -184 20 -320 25 -82 3 -117 0 -136 -10z m395 -425
c69 -56 204 -202 230 -249 5 -9 12 -18 15 -21 17 -14 101 -149 153 -245 40
-76 44 -105 19 -134 -25 -29 -56 -32 -172 -14 -51 7 -99 11 -105 9 -7 -3 -15
-2 -18 1 -3 3 -25 7 -48 9 -88 5 -152 15 -162 23 -8 7 -11 110 -11 324 0 381
-1 379 99 297z m613 -171 c160 -90 377 -272 559 -471 129 -139 145 -179 92
-223 -32 -27 -33 -27 -166 14 -53 17 -149 44 -212 62 -63 17 -121 37 -129 43
-8 6 -29 45 -48 86 -57 125 -154 310 -177 339 -61 76 -43 162 36 170 4 1 24
-9 45 -20z m1044 -381 c22 -12 39 -25 39 -30 0 -4 7 -8 15 -8 9 0 18 -7 21
-15 4 -8 10 -15 15 -15 10 0 133 -97 209 -165 72 -64 321 -316 367 -370 62
-75 103 -128 188 -241 50 -66 55 -105 21 -139 -34 -34 -66 -31 -120 10 -78 59
-303 215 -311 215 -2 0 -23 13 -47 29 -24 16 -65 41 -92 55 -67 36 -70 39
-112 114 -63 113 -159 261 -246 380 -80 108 -88 141 -44 179 34 29 48 29 97 1z
m-1551 -383 c14 -2 48 -6 75 -10 28 -3 66 -8 85 -11 19 -3 51 -7 70 -9 32 -4
184 -31 220 -40 8 -2 20 -4 26 -4 26 -2 53 -46 80 -127 15 -49 29 -91 29 -94
1 -3 9 -32 19 -65 10 -33 18 -62 18 -65 0 -3 5 -16 10 -30 5 -14 11 -32 13
-40 2 -8 19 -78 38 -156 20 -78 38 -158 41 -179 4 -20 8 -41 11 -45 12 -20 14
-106 3 -121 -29 -36 -54 -40 -163 -25 -27 3 -75 9 -105 11 -30 3 -71 7 -90 9
-19 3 -71 8 -115 11 -44 3 -105 8 -135 10 -30 3 -107 7 -170 10 -138 6 -150 8
-159 23 -9 16 -8 934 2 950 8 12 113 10 197 -3z m940 -198 c8 -2 18 -5 22 -6
12 -2 90 -31 113 -43 12 -5 27 -10 35 -12 32 -6 339 -137 412 -175 49 -25 57
-34 95 -112 71 -141 204 -478 218 -552 2 -9 6 -21 9 -25 2 -4 7 -26 11 -49 4
-30 2 -45 -10 -57 -38 -38 -51 -38 -163 -7 -165 46 -432 109 -562 131 -89 15
-117 29 -132 65 -7 16 -12 33 -10 37 1 4 -5 40 -14 80 -8 40 -17 84 -19 98 -2
14 -11 57 -20 95 -9 39 -18 77 -20 85 -20 88 -81 319 -95 355 -21 56 41 125
95 104 11 -4 27 -9 35 -12z m1259 -676 c70 -38 388 -361 441 -447 8 -13 18
-24 22 -24 5 0 8 -6 8 -14 0 -8 4 -16 8 -18 14 -5 119 -164 130 -196 8 -24 7
-35 -9 -61 -10 -17 -26 -32 -34 -32 -8 -1 -21 -2 -27 -3 -12 -2 -32 8 -115 55
-86 49 -353 179 -369 179 -3 0 -13 8 -23 18 -20 20 -34 55 -50 132 -7 30 -16
66 -21 80 -4 14 -13 43 -19 65 -6 22 -22 77 -37 122 -24 79 -25 84 -9 117 22
46 54 54 104 27z m-2099 -316 c36 -2 92 -7 125 -10 33 -3 89 -7 125 -10 36 -3
79 -8 95 -10 17 -2 53 -7 80 -10 28 -3 64 -8 80 -10 17 -2 53 -7 80 -10 100
-12 118 -26 130 -101 5 -27 9 -53 10 -59 1 -5 5 -41 9 -80 4 -38 9 -83 12
-100 2 -16 6 -55 9 -85 2 -30 7 -75 9 -100 8 -67 15 -171 22 -300 14 -264 13
-278 -25 -307 -12 -9 -142 -12 -533 -13 -483 0 -518 1 -526 18 -11 21 -10
1172 1 1189 8 12 103 12 297 -2z m1125 -155 c17 -5 44 -11 60 -14 17 -3 50
-10 75 -16 25 -6 59 -13 75 -16 17 -3 38 -10 48 -15 9 -5 17 -8 17 -5 0 3 15
0 33 -5 34 -11 135 -39 152 -43 6 -1 63 -19 128 -40 137 -44 151 -58 163 -171
2 -20 12 -80 20 -119 2 -11 6 -41 9 -66 3 -25 8 -61 11 -80 13 -91 25 -223 29
-329 3 -77 2 -85 -20 -107 l-24 -24 -415 0 c-289 0 -423 3 -440 11 -31 14 -35
33 -41 179 -6 132 -15 297 -20 355 -1 22 -6 78 -9 125 -4 47 -9 101 -12 120
-3 19 -7 55 -9 80 -3 25 -7 69 -10 97 -5 48 -3 56 20 79 24 24 31 26 78 20 29
-4 66 -11 82 -16z m1229 -417 c252 -131 470 -307 576 -465 47 -70 52 -116 18
-148 -21 -19 -34 -20 -345 -20 l-324 0 -23 25 c-15 16 -23 38 -25 67 -1 24 -3
68 -6 98 -16 211 -18 236 -30 305 -3 17 -6 54 -7 84 -1 45 2 57 21 72 34 27
64 24 145 -18z m-1580 -994 c21 -24 23 -36 21 -115 -5 -164 -26 -470 -40 -574
-3 -19 -7 -62 -10 -94 -3 -33 -7 -71 -9 -85 -2 -14 -7 -53 -11 -86 -12 -114
-26 -142 -70 -151 -5 -1 -12 -3 -15 -4 -10 -4 -38 -8 -96 -14 -32 -4 -72 -9
-89 -11 -27 -4 -83 -10 -180 -20 -16 -2 -66 -7 -110 -10 -44 -4 -93 -8 -110
-10 -57 -5 -300 -18 -319 -17 -10 1 -24 6 -30 12 -8 8 -11 186 -11 602 0 561
1 591 18 597 10 4 248 7 528 6 l511 0 22 -26z m1128 22 c4 0 16 -11 28 -23 18
-20 20 -31 15 -111 -2 -49 -7 -110 -10 -135 -3 -26 -7 -72 -10 -102 -6 -67
-19 -173 -30 -230 -2 -14 -7 -41 -9 -60 -3 -19 -7 -44 -9 -55 -3 -11 -8 -38
-11 -60 -9 -49 -38 -82 -80 -91 -17 -3 -35 -9 -41 -13 -5 -3 -12 -6 -15 -6 -5
-1 -162 -48 -215 -64 -16 -6 -59 -17 -95 -26 -64 -17 -80 -21 -121 -30 -11 -2
-28 -6 -37 -9 -9 -3 -28 -7 -42 -10 -14 -3 -59 -13 -100 -22 -98 -22 -126 -21
-155 6 -25 23 -26 50 -11 170 7 54 14 119 22 220 3 41 7 92 9 112 7 70 20 317
24 469 1 31 28 65 56 71 18 3 819 3 837 -1z m1049 -18 c26 -25 28 -76 5 -102
-9 -10 -16 -22 -16 -27 0 -19 -128 -160 -205 -227 -150 -130 -443 -305 -488
-291 -44 13 -62 40 -59 91 1 27 4 59 7 73 3 14 8 57 11 95 3 39 7 77 9 85 2 8
7 66 11 129 3 63 7 119 8 125 6 34 19 54 39 63 13 6 148 10 339 9 312 -1 318
-1 339 -23z m-184 -679 c35 -35 28 -67 -43 -189 -32 -55 -61 -102 -64 -105 -3
-3 -25 -34 -50 -70 -107 -157 -250 -315 -445 -494 -27 -25 -58 -48 -67 -51
-10 -4 -18 -11 -18 -16 0 -6 -14 -16 -32 -23 -27 -12 -37 -12 -65 2 -51 24
-51 51 1 206 25 75 48 146 50 159 3 12 17 63 31 112 14 50 27 100 29 113 9 45
19 66 40 84 11 9 24 17 28 18 7 0 136 59 218 99 76 38 162 86 245 138 80 50
106 53 142 17z m-1016 -469 c0 -5 2 -19 5 -30 6 -34 -157 -500 -187 -529 -5
-6 -9 -20 -9 -32 0 -12 -3 -24 -7 -26 -5 -1 -37 -61 -73 -133 -72 -143 -62
-134 -215 -200 -49 -21 -94 -42 -99 -47 -6 -4 -16 -8 -23 -8 -7 0 -36 -11 -65
-24 -29 -13 -73 -29 -98 -36 -25 -7 -49 -15 -55 -18 -5 -4 -12 -7 -15 -8 -3 0
-12 -3 -20 -7 -49 -19 -126 -39 -148 -39 -16 0 -34 10 -49 28 -23 30 -24 55
-2 111 6 15 12 35 14 44 2 9 12 47 24 85 36 125 102 390 116 474 2 14 11 59
20 100 8 41 17 86 20 100 5 31 46 65 81 68 14 1 71 11 127 23 56 11 113 23
127 25 14 3 33 7 42 10 9 3 25 7 35 9 10 2 38 8 63 15 25 6 54 13 65 15 11 2
67 17 125 33 58 17 114 32 125 34 22 4 74 -21 76 -37z m-1120 -223 c14 -18 19
-35 15 -57 -12 -75 -18 -103 -28 -140 -6 -22 -12 -49 -14 -60 -2 -11 -8 -38
-13 -60 -5 -22 -12 -50 -15 -63 -3 -13 -8 -32 -11 -42 -3 -10 -8 -28 -10 -39
-9 -40 -14 -57 -40 -146 -15 -49 -28 -97 -30 -105 -13 -55 -97 -273 -112 -289
-10 -10 -38 -22 -63 -26 -24 -4 -47 -8 -50 -10 -3 -2 -30 -6 -60 -10 -30 -4
-59 -9 -63 -12 -4 -3 -27 -6 -50 -8 -23 -2 -62 -6 -87 -9 -86 -12 -115 -15
-202 -22 -77 -5 -87 -4 -95 13 -10 19 -12 1028 -2 1037 9 9 69 15 199 21 178
7 337 19 425 32 22 3 60 6 85 8 50 3 144 16 148 20 10 9 56 -12 73 -33z m1563
-640 c8 -28 5 -37 -27 -78 -89 -115 -265 -297 -401 -416 -44 -40 -86 -77 -92
-82 -7 -6 -24 -20 -40 -31 -15 -11 -32 -25 -38 -30 -49 -47 -173 -125 -197
-125 -26 0 -68 28 -70 48 0 4 -2 15 -4 24 -2 10 1 20 6 24 5 3 7 10 4 15 -4 5
1 12 9 15 9 3 16 10 16 16 0 5 7 17 16 25 9 9 67 94 130 189 l115 173 112 63
c62 35 118 64 125 66 6 2 12 8 12 13 0 5 7 9 15 9 8 0 15 4 15 9 0 5 14 14 30
21 17 7 30 16 30 21 0 5 5 9 10 9 6 0 35 18 64 39 28 21 61 41 72 43 31 8 77
-24 88 -60z m-1239 -557 c48 -46 36 -75 -85 -195 -156 -156 -259 -241 -417
-344 -58 -38 -78 -46 -100 -41 -78 17 -85 62 -26 162 24 41 43 78 43 82 0 5 3
11 8 13 4 2 31 50 60 108 63 127 69 135 107 143 17 4 41 10 55 13 14 3 43 10
65 16 22 6 45 13 50 14 6 1 46 13 90 26 107 31 118 32 150 3z m-814 -168 c23
-18 39 -52 34 -75 -11 -59 -172 -287 -285 -402 -127 -130 -178 -161 -192 -117
-9 26 -2 547 7 556 6 5 36 12 67 15 32 2 62 7 67 11 5 3 12 1 16 -5 4 -6 12
-7 18 -3 7 4 33 9 59 11 26 1 67 6 90 11 66 11 102 11 119 -2z"/>
</g>
</svg>
